<svg xmlns="http://www.w3.org/2000/svg" viewBox="207 182 736 736">
  <g transform="translate(0,1052) scale(0.1,-0.1)">
    <path fill="#FFFFFF" d="M2654 8680 c-67 -14 -186 -64 -248 -105 -142 -94 -245 -234 -298
-405 l-23 -75 -3 -3040 c-3 -3338 -7 -3109 55 -3265 84 -210 262 -364 493
-427 62 -17 220 -18 3125 -18 2902 0 3064 1 3130 18 93 23 216 85 290 146 118
95 213 254 244 409 8 37 11 985 11 3102 0 3389 6 3119 -69 3268 -77 153 -184
259 -336 333 -155 74 119 69 -3275 68 -1680 -1 -3073 -5 -3096 -9z"/>
    <path fill="#4F46E5" d="M5570 7764 c-530 -59 -968 -300 -1309 -720 -88 -109 -222 -347 -274
-489 -94 -255 -142 -579 -118 -806 49 -478 239 -880 563 -1194 155 -151 267
-232 453 -330 93 -50 272 -122 322 -131 12 -2 34 -9 47 -14 47 -17 239 -50
325 -55 47 -3 105 -8 128 -10 123 -13 439 30 602 81 l84 27 71 -35 c95 -47
169 -107 203 -165 24 -41 28 -59 28 -123 0 -105 -33 -170 -139 -276 -71 -70
-97 -88 -206 -142 -69 -33 -147 -68 -173 -77 -234 -76 -526 -84 -768 -21 -320
83 -570 284 -596 477 l-6 39 -471 -2 -471 -3 3 -70 c9 -250 118 -529 289 -742
266 -334 691 -571 1191 -665 79 -14 168 -21 339 -25 262 -6 369 3 570 47 585
130 1056 470 1264 915 98 210 139 434 119 653 -28 297 -128 515 -334 729 l-79
83 41 52 c115 150 243 408 297 596 77 273 96 541 54 801 -15 99 -67 306 -90
365 -44 108 -150 315 -204 396 -107 159 -253 319 -395 430 -36 28 -73 57 -83
65 -9 8 -19 15 -21 15 -2 0 -30 18 -63 40 -179 119 -436 217 -696 266 -78 14
-418 27 -497 18z"/>
  </g>
</svg>
